name C:\Users\u0101727\Documents\MyRepositories\upper-imu-dc\Results\main_tracking\Case_21\kinematics.mot
datacolumns 10
datarows 47
range 4.83000000 5.29000000
endheader 
time	clav_prot	clav_elev	scapula_abduction	scapula_elevation	scapula_upward_rot	scapula_winging	plane_elv	shoulder_elv	axial_rot	
          4.83000000	        -25.12289139	         10.50441801	         -5.35208170	          1.54825993	         36.91860282	         -3.57971656	         71.19108984	         66.03992162	        -17.77776393	
          4.84000000	        -24.87849770	         10.36956270	         -5.53041567	          1.60415265	         36.09517998	         -3.34783555	         71.16698265	         65.78385980	        -17.73596687	
          4.85000000	        -24.64236532	         10.23280570	         -5.70767956	          1.65963236	         35.28484558	         -3.11740313	         71.11537864	         65.53038815	        -17.79207097	
          4.86000000	        -24.41483854	         10.09415310	         -5.88118127	          1.71372966	         34.49174374	         -2.88970485	         71.03505898	         65.27471393	        -17.94936745	
          4.87000000	        -24.19661473	          9.95435439	         -6.04853078	          1.76574155	         33.72097560	         -2.66639498	         70.92675258	         65.01076896	        -18.19537911	
          4.88000000	        -23.98839798	          9.81430718	         -6.20737632	          1.81495642	         32.97784878	         -2.44924574	         70.79262253	         64.73190406	        -18.50440361	
          4.89000000	        -23.79063261	          9.67446985	         -6.35546031	          1.86044391	         32.26687242	         -2.23983134	         70.63574687	         64.43198782	        -18.84313003	
          4.90000000	        -23.60341910	          9.53449512	         -6.49104033	          1.90100532	         31.59078925	         -2.03922841	         70.45975370	         64.10658380	        -19.17751852	
          4.91000000	        -23.42661965	          9.39319720	         -6.61351893	          1.93530605	         30.94993426	         -1.84781111	         70.26864790	         63.75382813	        -19.47876647	
          4.92000000	        -23.26006939	          9.24874444	         -6.72397407	          1.96207576	         30.34207767	         -1.66518165	         70.06670830	         63.37475359	        -19.72678995	
          4.93000000	        -23.10376882	          9.09887923	         -6.82534953	          1.98024283	         29.76267918	         -1.49021602	         69.85830536	         62.97309508	        -19.91142400	
          4.94000000	        -22.95800049	          8.94115075	         -6.92211889	          1.98896362	         29.20566823	         -1.32126586	         69.64758753	         62.55444747	        -20.03051772	
          4.95000000	        -22.82340814	          8.77323879	         -7.01961757	          1.98761391	         28.66465137	         -1.15650039	         69.43817540	         62.12495760	        -20.08647126	
          4.96000000	        -22.70100745	          8.59325101	         -7.12300465	          1.97567181	         28.13446599	         -0.99436654	         69.23298610	         61.68967867	        -20.08242320	
          4.97000000	        -22.59212592	          8.40016044	         -7.23615077	          1.95267201	         27.61279815	         -0.83409040	         69.03428582	         61.25104264	        -20.02245326	
          4.98000000	        -22.49860313	          8.19526024	         -7.36096018	          1.91871764	         27.10250841	         -0.67643738	         68.84385697	         60.80688718	        -19.91371365	
          4.99000000	        -22.41612048	          7.98090712	         -7.48201916	          1.87306065	         26.61544391	         -0.52481638	         68.66312977	         60.34656448	        -19.76920870	
          5.00000000	        -22.30468795	          7.75006619	         -7.50855160	          1.80793375	         26.17300853	         -0.38516607	         68.49340353	         59.84858495	        -19.59975328	
          5.01000000	        -22.05110184	          7.50130738	         -7.23750020	          1.72884610	         25.77402224	         -0.25776939	         68.33650811	         59.31599545	        -19.40880397	
          5.02000000	        -22.29472258	          7.29954375	         -7.86853198	          1.65131633	         25.39392713	         -0.13636333	         68.19336017	         58.77564275	        -19.17976379	
          5.03000000	        -22.26666672	          7.05964150	         -7.96119666	          1.55248189	         25.05626407	         -0.02540033	         68.06406324	         58.19887773	        -18.88596609	
          5.04000000	        -22.26380637	          6.82635397	         -8.10170504	          1.45740538	         24.71834993	          0.08644677	         67.94409026	         57.63162962	        -18.51340436	
          5.05000000	        -22.25677358	          6.59819834	         -8.24193761	          1.36847035	         24.37267409	          0.20146211	         67.82631706	         57.08101687	        -18.04948697	
          5.06000000	        -22.25387157	          6.37017521	         -8.37652101	          1.27570510	         24.04433504	          0.31227863	         67.70519197	         56.52127107	        -17.51730183	
          5.07000000	        -22.25103020	          6.14167129	         -8.50033241	          1.17955366	         23.73020169	          0.41986698	         67.57640340	         55.95623528	        -16.94567291	
          5.08000000	        -22.23503403	          5.90793016	         -8.58484466	          1.07619944	         23.43460531	          0.52316243	         67.43902594	         55.38224115	        -16.37619594	
          5.09000000	        -22.23200032	          5.67131714	         -8.68741872	          0.96889369	         23.14430249	          0.62620543	         67.29409398	         54.81365495	        -15.84317228	
          5.10000000	        -22.22136322	          5.43504985	         -8.77478511	          0.86192892	         22.85627231	          0.72958333	         67.14450678	         54.25511503	        -15.37754315	
          5.11000000	        -22.21814891	          5.19424681	         -8.86636230	          0.74892246	         22.57835609	          0.83145414	         66.99565884	         53.69766806	        -14.99364180	
          5.12000000	        -22.23540591	          4.95411612	         -8.98499365	          0.63204464	         22.31432030	          0.93050480	         66.85024290	         53.13736745	        -14.69815180	
          5.13000000	        -22.23267661	          4.71060914	         -9.06369974	          0.51291478	         22.05458406	          1.02955656	         66.70895462	         52.58127368	        -14.47562689	
          5.14000000	        -22.25612466	          4.47404468	         -9.19039508	          0.39702036	         21.79688226	          1.12886404	         66.56892610	         52.03031182	        -14.31231767	
          5.15000000	        -22.26347094	          4.23247021	         -9.27449585	          0.27422974	         21.55669252	          1.22446732	         66.43138291	         51.46463274	        -14.18322654	
          5.16000000	        -22.28289546	          3.99860263	         -9.38207990	          0.15614471	         21.31811938	          1.32014919	         66.29149069	         50.89868233	        -14.06672928	
          5.17000000	        -22.29023831	          3.76471164	         -9.45489565	          0.03404545	         21.09929862	          1.41100946	         66.15298011	         50.31102286	        -13.94562733	
          5.18000000	        -22.31107237	          3.53803551	         -9.54476003	         -0.08694677	         20.89500062	          1.49812044	         66.01560130	         49.70597602	        -13.82201681	
          5.19000000	        -22.33597580	          3.31949872	         -9.63619355	         -0.20528618	         20.70391558	          1.58153665	         65.88064702	         49.08423151	        -13.70895179	
          5.20000000	        -22.35471847	          3.10997428	         -9.71110623	         -0.31984179	         20.52650882	          1.66074980	         65.74843004	         48.44558730	        -13.63596498	
          5.21000000	        -22.38996005	          2.91649591	         -9.81609588	         -0.42527322	         20.35689667	          1.73673901	         65.61493216	         47.79700556	        -13.63136805	
          5.22000000	        -22.47507098	          2.74365004	         -9.99907276	         -0.52470160	         20.21382529	          1.80365502	         65.47931613	         47.12067276	        -13.71705438	
          5.23000000	        -22.52891375	          2.58432585	        -10.11385742	         -0.61873475	         20.09764380	          1.86101167	         65.33787416	         46.41555452	        -13.88707100	
          5.24000000	        -22.58159271	          2.44039600	        -10.22922945	         -0.70229977	         19.98598079	          1.91529770	         65.18200362	         45.70226934	        -14.09991544	
          5.25000000	        -22.67663627	          2.31857517	        -10.43351780	         -0.76952082	         19.86474887	          1.96976529	         65.00371884	         44.99381260	        -14.29941707	
          5.26000000	        -22.71639297	          2.20617044	        -10.54346130	         -0.82646751	         19.74386224	          2.02236057	         64.80333970	         44.27926009	        -14.42751414	
          5.27000000	        -22.77953542	          2.10791497	        -10.70678953	         -0.87149938	         19.61193212	          2.07625213	         64.57824828	         43.56957345	        -14.42869633	
          5.28000000	        -22.82551189	          2.01639698	        -10.85012045	         -0.90744674	         19.46788616	          2.13252215	         64.32915136	         42.86662741	        -14.26816691	
          5.29000000	        -22.87316408	          1.92940403	        -11.00901599	         -0.93584712	         19.30674602	          2.19304792	         64.05597293	         42.17731135	        -13.93852292	
